<svg xmlns="http://www.w3.org/2000/svg" xmlns:xlink="http://www.w3.org/1999/xlink" version="1.1" x="0px" y="0px" viewBox="0 0 100 125" enable-background="new 0 0 100 100" xml:space="preserve"><path fill-rule="evenodd" clip-rule="evenodd" fill="none" stroke="#ffffff" stroke-miterlimit="10" d="M49.995,21.037  c-15.988,0-28.958,12.967-28.958,28.963c0,15.996,12.97,28.963,28.958,28.963c15.999,0,28.966-12.967,28.966-28.963  C78.961,34.004,65.994,21.037,49.995,21.037z M49.995,77.232c-15.04,0-27.23-12.19-27.23-27.232c0-15.042,12.19-27.231,27.23-27.231  c15.049,0,27.24,12.189,27.24,27.231C77.235,65.042,65.044,77.232,49.995,77.232z M64.929,52.361  c-0.811,0.676-1.668,1.231-2.532,1.667c-0.454-0.866-0.987-1.639-1.586-2.311c0.774-0.458,1.526-1.032,2.219-1.717  C63.719,50.686,64.363,51.471,64.929,52.361z M59.752,54.967c0.881-0.194,1.772-0.503,2.645-0.938  c0.455,0.865,0.811,1.814,1.074,2.837c-0.981,0.389-1.964,0.653-2.931,0.792C60.386,56.705,60.113,55.792,59.752,54.967z   M60.54,57.658c0.16,0.963,0.212,1.981,0.147,3.032c-1.052,0.065-2.068,0.014-3.029-0.148c0.142-0.963,0.163-1.907,0.081-2.801  C58.632,57.825,59.575,57.801,60.54,57.658z M54.967,59.75c0.826,0.366,1.734,0.634,2.691,0.792  c-0.142,0.968-0.406,1.944-0.79,2.925c-1.029-0.258-1.978-0.615-2.843-1.074C54.464,61.528,54.771,60.63,54.967,59.75z   M51.715,60.811c0.672,0.602,1.449,1.129,2.311,1.583c-0.431,0.871-0.985,1.726-1.657,2.537c-0.898-0.564-1.686-1.208-2.373-1.897  C50.683,62.333,51.257,61.583,51.715,60.811z M48.286,60.811c0.455,0.772,1.03,1.522,1.709,2.222  c-0.679,0.689-1.465,1.333-2.363,1.897c-0.672-0.811-1.228-1.666-1.656-2.537C46.835,61.94,47.608,61.413,48.286,60.811z   M45.034,59.75c0.194,0.88,0.5,1.778,0.941,2.644c-0.868,0.458-1.814,0.816-2.843,1.074c-0.387-0.981-0.65-1.958-0.792-2.925  C43.297,60.384,44.207,60.116,45.034,59.75z M42.341,60.542c-0.959,0.162-1.978,0.213-3.028,0.153  c-0.066-1.056-0.012-2.074,0.147-3.037c0.963,0.144,1.906,0.167,2.802,0.083C42.172,58.635,42.202,59.579,42.341,60.542z   M40.247,54.967c-0.361,0.825-0.635,1.738-0.787,2.691c-0.968-0.139-1.948-0.403-2.932-0.792c0.265-1.023,0.62-1.973,1.076-2.837  C38.47,54.464,39.368,54.773,40.247,54.967z M39.188,51.717c-0.6,0.672-1.132,1.445-1.584,2.311  c-0.867-0.436-1.724-0.991-2.534-1.662c0.567-0.896,1.211-1.681,1.901-2.367C37.662,50.686,38.414,51.259,39.188,51.717z   M39.188,48.283c-0.774,0.462-1.526,1.032-2.217,1.717c-0.69-0.685-1.334-1.468-1.901-2.361c0.808-0.677,1.667-1.231,2.534-1.667  C38.057,46.838,38.589,47.611,39.188,48.283z M40.247,45.037c-0.879,0.19-1.777,0.5-2.643,0.936  c-0.456-0.862-0.812-1.811-1.076-2.838c0.983-0.388,1.964-0.653,2.932-0.792C39.612,43.301,39.886,44.208,40.247,45.037z   M39.46,42.342c-0.159-0.958-0.214-1.981-0.153-3.032c1.057-0.065,2.075-0.009,3.034,0.149c-0.139,0.967-0.169,1.907-0.079,2.8  C41.366,42.175,40.423,42.203,39.46,42.342z M45.034,40.245c-0.827-0.356-1.737-0.629-2.693-0.787  c0.137-0.968,0.405-1.944,0.792-2.927c1.028,0.265,1.975,0.617,2.843,1.076C45.534,38.473,45.229,39.371,45.034,40.245z   M48.286,39.189c-0.672-0.598-1.451-1.129-2.311-1.583c0.429-0.872,0.984-1.728,1.656-2.539c0.898,0.565,1.685,1.208,2.363,1.904  C49.316,37.666,48.741,38.417,48.286,39.189z M51.715,39.189c-0.458-0.773-1.032-1.524-1.72-2.217  c0.688-0.695,1.475-1.339,2.363-1.904c0.682,0.811,1.236,1.667,1.667,2.539C53.164,38.06,52.387,38.592,51.715,39.189z   M54.967,40.25c-0.195-0.879-0.503-1.777-0.941-2.643c0.865-0.459,1.813-0.811,2.838-1.076c0.389,0.983,0.653,1.959,0.795,2.927  C56.701,39.616,55.793,39.889,54.967,40.25z M57.658,39.458c0.961-0.158,1.978-0.214,3.029-0.149  c0.064,1.051,0.013,2.074-0.147,3.032c-0.965-0.139-1.908-0.167-2.801-0.083C57.827,41.366,57.8,40.425,57.658,39.458z   M59.752,45.037c0.361-0.828,0.634-1.736,0.788-2.695c0.967,0.139,1.949,0.404,2.931,0.792c-0.264,1.028-0.619,1.977-1.074,2.838  C61.524,45.537,60.633,45.227,59.752,45.037z M60.811,48.283c0.599-0.672,1.132-1.445,1.586-2.311  c0.864,0.436,1.722,0.99,2.532,1.662c-0.565,0.893-1.21,1.681-1.899,2.366C62.337,49.315,61.585,48.745,60.811,48.283z M58.235,50  c0,4.546-3.687,8.231-8.24,8.231c-4.544,0-8.229-3.686-8.229-8.231c0-4.548,3.686-8.23,8.229-8.23  C54.549,41.77,58.235,45.452,58.235,50z M49.995,27.564c-12.391,0-22.435,10.043-22.435,22.436c0,12.394,10.044,22.44,22.435,22.44  c12.396,0,22.443-10.047,22.443-22.44C72.438,37.607,62.391,27.564,49.995,27.564z M62.582,34.776  c0.334-0.407,0.938-0.438,1.363-0.074c0.398,0.39,0.428,0.995,0.053,1.366c-0.376,0.363-0.971,0.38-1.332,0.038  C62.289,35.777,62.251,35.186,62.582,34.776z M59.57,32.722c0.247-0.454,0.849-0.611,1.327-0.321c0.47,0.297,0.604,0.9,0.299,1.33  c-0.299,0.425-0.877,0.55-1.3,0.288C59.472,33.754,59.319,33.19,59.57,32.722z M56.235,31.258c0.154-0.49,0.727-0.773,1.24-0.555  c0.527,0.193,0.76,0.767,0.539,1.249c-0.21,0.478-0.754,0.695-1.227,0.515C56.329,32.278,56.072,31.769,56.235,31.258z   M53.804,29.656c0.551,0.088,0.883,0.635,0.765,1.13c-0.132,0.518-0.617,0.816-1.11,0.737c-0.492-0.093-0.841-0.571-0.774-1.085  C52.749,29.916,53.251,29.55,53.804,29.656z M49.995,29.3c0.562,0.014,0.993,0.454,0.96,0.977c-0.027,0.523-0.452,0.936-0.96,0.921  c-0.498,0.015-0.924-0.397-0.949-0.921C49.011,29.754,49.442,29.314,49.995,29.3z M46.197,29.656  c0.55-0.106,1.053,0.259,1.119,0.782c0.065,0.514-0.282,0.992-0.773,1.085c-0.495,0.079-0.983-0.219-1.11-0.737  C45.314,30.291,45.647,29.744,46.197,29.656z M42.525,30.704c0.513-0.218,1.082,0.064,1.24,0.555  c0.161,0.511-0.097,1.02-0.557,1.209c-0.47,0.18-1.013-0.037-1.224-0.515C41.766,31.471,41.997,30.897,42.525,30.704z   M39.104,32.401c0.472-0.291,1.079-0.133,1.324,0.321c0.255,0.468,0.102,1.032-0.324,1.296c-0.421,0.263-1,0.138-1.301-0.288  C38.498,33.301,38.634,32.703,39.104,32.401z M36.054,34.703c0.426-0.365,1.031-0.333,1.365,0.074c0.328,0.409,0.291,1-0.085,1.33  c-0.361,0.342-0.958,0.325-1.334-0.038C35.627,35.698,35.656,35.092,36.054,34.703z M33.481,37.528  c0.343-0.44,0.953-0.52,1.354-0.175c0.393,0.331,0.469,0.924,0.16,1.318c-0.295,0.402-0.878,0.5-1.313,0.204  C33.248,38.588,33.151,37.976,33.481,37.528z M31.468,40.773c0.251-0.5,0.842-0.681,1.305-0.422c0.444,0.26,0.621,0.825,0.396,1.269  c-0.227,0.448-0.771,0.653-1.256,0.445C31.438,41.861,31.215,41.273,31.468,40.773z M30.094,44.337  c0.144-0.541,0.706-0.828,1.193-0.657c0.497,0.172,0.754,0.695,0.632,1.176c-0.141,0.477-0.639,0.783-1.152,0.667  C30.257,45.408,29.931,44.87,30.094,44.337z M30.445,47.227c0.524,0.079,0.881,0.542,0.841,1.042  c-0.043,0.495-0.496,0.883-1.011,0.865c-0.534-0.018-0.926-0.485-0.886-1.042C29.444,47.537,29.931,47.148,30.445,47.227z   M29.39,51.907c-0.04-0.555,0.352-1.023,0.886-1.038c0.515-0.023,0.968,0.371,1.011,0.866c0.04,0.5-0.316,0.958-0.841,1.038  C29.931,52.852,29.444,52.467,29.39,51.907z M30.094,55.663c-0.163-0.532,0.163-1.07,0.673-1.181  c0.514-0.12,1.012,0.185,1.152,0.661c0.122,0.488-0.135,1.005-0.632,1.176C30.8,56.491,30.237,56.208,30.094,55.663z M32.772,59.648  c-0.463,0.265-1.054,0.078-1.305-0.421c-0.253-0.496-0.029-1.089,0.445-1.292c0.484-0.208,1.029,0,1.256,0.445  C33.394,58.829,33.217,59.389,32.772,59.648z M34.836,62.653c-0.401,0.342-1.012,0.264-1.354-0.181  c-0.33-0.45-0.233-1.056,0.202-1.348c0.435-0.291,1.018-0.199,1.313,0.204C35.306,61.723,35.229,62.314,34.836,62.653z   M37.419,65.222c-0.334,0.407-0.939,0.444-1.365,0.076c-0.397-0.386-0.427-0.997-0.054-1.362c0.376-0.367,0.973-0.384,1.334-0.042  C37.71,64.222,37.747,64.82,37.419,65.222z M40.428,67.278c-0.245,0.453-0.848,0.617-1.324,0.319  c-0.47-0.296-0.605-0.898-0.301-1.329c0.301-0.421,0.88-0.55,1.301-0.287C40.529,66.25,40.683,66.815,40.428,67.278z M43.766,68.741  c-0.158,0.491-0.728,0.773-1.24,0.562c-0.528-0.2-0.76-0.775-0.54-1.254c0.211-0.474,0.754-0.691,1.224-0.515  C43.669,67.723,43.927,68.231,43.766,68.741z M46.197,70.343c-0.55-0.088-0.883-0.63-0.765-1.13c0.127-0.513,0.615-0.815,1.11-0.736  c0.491,0.093,0.839,0.57,0.773,1.083C47.25,70.089,46.747,70.449,46.197,70.343z M49.995,70.7c-0.553-0.014-0.984-0.453-0.949-0.973  c0.025-0.523,0.451-0.939,0.949-0.924c0.508-0.015,0.933,0.401,0.96,0.924C50.988,70.247,50.557,70.686,49.995,70.7z M53.804,70.343  c-0.553,0.105-1.055-0.254-1.12-0.784c-0.066-0.512,0.282-0.989,0.774-1.083c0.493-0.079,0.979,0.223,1.11,0.736  C54.687,69.713,54.354,70.255,53.804,70.343z M57.476,69.302c-0.514,0.211-1.086-0.07-1.24-0.562  c-0.163-0.509,0.094-1.018,0.553-1.208c0.473-0.176,1.017,0.042,1.227,0.515C58.235,68.527,58.003,69.103,57.476,69.302z   M60.897,67.598c-0.474,0.297-1.08,0.134-1.327-0.319c-0.251-0.463-0.099-1.028,0.326-1.296c0.423-0.263,1.001-0.135,1.3,0.287  C61.501,66.7,61.367,67.296,60.897,67.598z M49.995,67.45c-9.632,0-17.444-7.815-17.444-17.45c0-9.629,7.813-17.444,17.444-17.444  c9.636,0,17.452,7.815,17.452,17.444C67.447,59.635,59.631,67.45,49.995,67.45z M63.945,65.298  c-0.426,0.369-1.029,0.332-1.363-0.076c-0.331-0.402-0.293-1,0.084-1.328c0.361-0.343,0.956-0.325,1.332,0.042  C64.373,64.301,64.344,64.912,63.945,65.298z M66.515,62.473c-0.34,0.444-0.948,0.523-1.351,0.181  c-0.394-0.339-0.468-0.93-0.163-1.325c0.298-0.403,0.882-0.495,1.321-0.204C66.754,61.417,66.848,62.023,66.515,62.473z   M68.532,59.227c-0.253,0.499-0.842,0.686-1.304,0.421c-0.443-0.259-0.621-0.819-0.397-1.268c0.228-0.445,0.77-0.653,1.257-0.445  C68.563,58.138,68.784,58.727,68.532,59.227z M69.907,55.663c-0.146,0.542-0.706,0.828-1.195,0.657  c-0.496-0.171-0.755-0.688-0.631-1.176c0.147-0.477,0.64-0.781,1.153-0.661C69.744,54.593,70.067,55.13,69.907,55.663z   M69.554,52.773c-0.524-0.079-0.88-0.542-0.839-1.038c0.042-0.495,0.495-0.889,1.011-0.866c0.531,0.014,0.926,0.483,0.883,1.038  C70.558,52.467,70.067,52.852,69.554,52.773z M70.608,48.092c0.043,0.557-0.352,1.024-0.883,1.042  c-0.516,0.018-0.969-0.37-1.011-0.865c-0.041-0.5,0.314-0.963,0.839-1.042C70.067,47.148,70.558,47.537,70.608,48.092z   M69.907,44.337c0.16,0.533-0.163,1.071-0.673,1.186c-0.514,0.116-1.006-0.19-1.153-0.667c-0.124-0.481,0.135-1.004,0.631-1.176  C69.201,43.509,69.761,43.796,69.907,44.337z M67.229,40.351c0.462-0.259,1.051-0.079,1.304,0.422c0.252,0.5,0.03,1.088-0.444,1.292  c-0.487,0.208-1.029,0-1.257-0.445C66.607,41.176,66.785,40.611,67.229,40.351z M66.322,38.875  c-0.439,0.296-1.023,0.199-1.321-0.204c-0.311-0.394-0.23-0.987,0.163-1.318c0.402-0.344,1.011-0.265,1.351,0.175  C66.848,37.976,66.754,38.588,66.322,38.875z M74.928,49.435c0.219,0,0.392,0.171,0.392,0.385V50c0,0.542-0.02,1.083-0.054,1.616  c-0.012,0.204-0.185,0.361-0.384,0.361c-0.009,0-0.02,0-0.024-0.005c-0.21-0.014-0.374-0.19-0.357-0.407  c0.029-0.518,0.048-1.038,0.048-1.565v-0.181C74.548,49.606,74.721,49.435,74.928,49.435z M74.456,45.116  c0.213-0.042,0.406,0.102,0.447,0.315c0.101,0.522,0.175,1.055,0.234,1.598c0.029,0.207-0.123,0.397-0.332,0.421  c-0.016,0-0.03,0.003-0.049,0.003c-0.188,0-0.352-0.143-0.379-0.336c-0.06-0.524-0.142-1.042-0.229-1.552  C74.108,45.352,74.247,45.153,74.456,45.116z M30.586,34.352c-0.163-0.14-0.186-0.375-0.052-0.542  c0.353-0.413,0.704-0.82,1.075-1.208c0.141-0.155,0.389-0.163,0.542-0.014c0.152,0.143,0.159,0.388,0.017,0.541  c-0.361,0.38-0.706,0.772-1.04,1.171c-0.082,0.098-0.186,0.139-0.298,0.139C30.741,34.439,30.659,34.411,30.586,34.352z   M37.099,28.662c-0.11-0.189-0.045-0.422,0.139-0.528c0.463-0.269,0.936-0.527,1.418-0.769c0.189-0.092,0.422-0.018,0.513,0.167  c0.093,0.189,0.021,0.421-0.172,0.52c-0.468,0.231-0.925,0.485-1.374,0.744c-0.064,0.033-0.13,0.052-0.195,0.052  C37.3,28.847,37.167,28.782,37.099,28.662z M73.799,58.653c-0.185,0.505-0.383,1.01-0.604,1.5c-0.063,0.148-0.203,0.23-0.351,0.23  c-0.05,0-0.101-0.008-0.153-0.032c-0.192-0.083-0.28-0.31-0.198-0.504c0.209-0.481,0.403-0.965,0.585-1.459  c0.071-0.199,0.291-0.301,0.49-0.23C73.767,58.231,73.873,58.449,73.799,58.653z M74.938,54.393  c-0.098,0.533-0.203,1.057-0.334,1.58c-0.04,0.176-0.191,0.296-0.368,0.296c-0.034,0-0.063-0.005-0.09-0.01  C73.937,56.208,73.81,56,73.86,55.792c0.125-0.505,0.229-1.014,0.318-1.532c0.038-0.208,0.227-0.371,0.444-0.311  C74.833,53.981,74.975,54.181,74.938,54.393z M33.595,31.226c-0.139-0.163-0.121-0.408,0.043-0.545  c0.415-0.347,0.831-0.686,1.267-1.006c0.172-0.125,0.407-0.087,0.537,0.079c0.125,0.172,0.087,0.413-0.078,0.537  c-0.42,0.314-0.83,0.639-1.229,0.978c-0.074,0.059-0.163,0.087-0.251,0.087C33.779,31.356,33.674,31.313,33.595,31.226z   M58.025,26.384c0.075-0.195,0.299-0.297,0.492-0.227c0.508,0.181,1.012,0.379,1.509,0.593c0.188,0.083,0.282,0.31,0.199,0.503  c-0.063,0.143-0.205,0.232-0.357,0.232c-0.046,0-0.099-0.01-0.149-0.033c-0.481-0.208-0.962-0.398-1.459-0.574  C58.056,26.805,57.957,26.586,58.025,26.384z M62.146,28.666c-0.186-0.106-0.247-0.343-0.142-0.527  c0.104-0.187,0.334-0.246,0.521-0.139c0.469,0.263,0.933,0.546,1.381,0.842c0.175,0.117,0.226,0.356,0.105,0.533  c-0.074,0.116-0.198,0.176-0.317,0.176c-0.076,0-0.149-0.023-0.209-0.064C63.048,29.198,62.6,28.926,62.146,28.666z M40.986,26.74  c-0.067-0.194,0.034-0.421,0.232-0.49c0.504-0.186,1.013-0.357,1.532-0.515c0.213-0.059,0.417,0.061,0.479,0.255  c0.061,0.208-0.058,0.421-0.261,0.481c-0.499,0.152-0.996,0.319-1.487,0.495c-0.04,0.02-0.088,0.024-0.134,0.024  C41.191,26.991,41.049,26.897,40.986,26.74z M65.665,31.097c-0.168-0.135-0.19-0.375-0.053-0.542c0.13-0.167,0.371-0.185,0.54-0.052  c0.414,0.344,0.825,0.705,1.204,1.075c0.158,0.144,0.164,0.384,0.022,0.537c-0.074,0.083-0.176,0.125-0.28,0.125  c-0.098,0-0.188-0.037-0.263-0.105C66.458,31.777,66.068,31.43,65.665,31.097z M45.162,25.536c-0.035-0.207,0.098-0.413,0.306-0.448  c0.53-0.098,1.063-0.177,1.603-0.237c0.218-0.028,0.398,0.134,0.421,0.338c0.029,0.213-0.123,0.403-0.335,0.426  c-0.52,0.056-1.039,0.135-1.548,0.228c-0.027,0.009-0.049,0.009-0.07,0.009C45.354,25.852,45.197,25.721,45.162,25.536z   M49.479,25.069c0-0.209,0.171-0.385,0.385-0.385h0.131c0.497,0,0.988,0.014,1.479,0.041c0.212,0.014,0.369,0.199,0.362,0.408  c-0.017,0.204-0.182,0.362-0.385,0.362c-0.01,0-0.016,0-0.025,0c-0.472-0.029-0.946-0.042-1.432-0.042h-0.131  C49.65,25.453,49.479,25.282,49.479,25.069z M53.809,25.355c0.035-0.208,0.24-0.356,0.443-0.313  c0.534,0.087,1.066,0.194,1.586,0.319c0.205,0.046,0.328,0.255,0.279,0.463c-0.038,0.181-0.198,0.296-0.369,0.296  c-0.027,0-0.062-0.005-0.087-0.014c-0.507-0.116-1.021-0.218-1.539-0.307C53.913,25.764,53.775,25.564,53.809,25.355z   M71.178,37.588c-0.106-0.186-0.046-0.421,0.14-0.528c0.182-0.111,0.412-0.052,0.521,0.134c0.275,0.462,0.532,0.934,0.779,1.421  c0.093,0.185,0.019,0.416-0.177,0.513c-0.055,0.028-0.111,0.042-0.172,0.042c-0.133,0-0.272-0.079-0.343-0.212  C71.691,38.49,71.441,38.032,71.178,37.588z M58.92,73.292c0.072,0.198-0.023,0.417-0.228,0.491  c-0.501,0.185-1.015,0.357-1.532,0.509c-0.037,0.009-0.076,0.015-0.11,0.015c-0.169,0-0.321-0.112-0.367-0.278  c-0.06-0.204,0.057-0.417,0.26-0.476c0.503-0.149,1-0.311,1.485-0.486C58.63,72.987,58.851,73.093,58.92,73.292z M46.1,74.63  c-0.031,0.188-0.195,0.319-0.382,0.319c-0.021,0-0.041,0-0.064-0.004c-0.531-0.094-1.061-0.203-1.581-0.325  c-0.203-0.05-0.336-0.255-0.283-0.463c0.051-0.208,0.245-0.333,0.463-0.287c0.504,0.12,1.019,0.226,1.532,0.319  C45.998,74.222,46.134,74.427,46.1,74.63z M54.746,74.485c0.04,0.205-0.101,0.404-0.313,0.442c-0.525,0.091-1.057,0.17-1.596,0.23  c-0.017,0-0.029,0-0.039,0c-0.199,0-0.365-0.143-0.383-0.339c-0.022-0.211,0.13-0.401,0.336-0.424  c0.523-0.056,1.038-0.134,1.555-0.223C54.521,74.125,54.71,74.274,54.746,74.485z M37.774,71.292  c0.187,0.107,0.246,0.342,0.145,0.528c-0.074,0.12-0.204,0.19-0.334,0.19c-0.068,0-0.133-0.015-0.198-0.051  c-0.464-0.27-0.923-0.557-1.372-0.852c-0.177-0.116-0.225-0.357-0.106-0.533c0.116-0.175,0.357-0.222,0.533-0.105  C36.877,70.756,37.323,71.033,37.774,71.292z M41.881,73.583c-0.054,0.158-0.198,0.255-0.362,0.255  c-0.041,0-0.081-0.004-0.128-0.023c-0.505-0.185-1.003-0.384-1.499-0.597c-0.193-0.088-0.286-0.311-0.199-0.505  c0.083-0.199,0.309-0.282,0.504-0.199c0.478,0.208,0.964,0.397,1.456,0.579C41.854,73.163,41.957,73.386,41.881,73.583z   M62.823,71.391c0.104,0.184,0.045,0.416-0.141,0.526c-0.463,0.269-0.941,0.523-1.427,0.764c-0.05,0.023-0.105,0.038-0.165,0.038  c-0.138,0-0.279-0.079-0.344-0.214c-0.093-0.189-0.018-0.421,0.174-0.515c0.469-0.23,0.931-0.476,1.378-0.74  C62.479,71.145,62.717,71.205,62.823,71.391z M69.353,65.719c0.169,0.138,0.188,0.383,0.052,0.545  c-0.346,0.408-0.708,0.811-1.076,1.199c-0.076,0.084-0.176,0.121-0.28,0.121c-0.096,0-0.188-0.033-0.263-0.106  c-0.152-0.143-0.163-0.389-0.015-0.542c0.361-0.379,0.716-0.768,1.049-1.167C68.952,65.603,69.192,65.584,69.353,65.719z   M71.794,62.122c0.18,0.11,0.247,0.342,0.143,0.526c-0.273,0.469-0.56,0.926-0.854,1.371c-0.081,0.115-0.199,0.176-0.326,0.176  c-0.07,0-0.143-0.023-0.212-0.064c-0.176-0.122-0.221-0.358-0.105-0.533c0.295-0.44,0.569-0.88,0.831-1.333  C71.375,62.079,71.608,62.019,71.794,62.122z M66.333,68.838c0.142,0.163,0.119,0.402-0.044,0.542c-0.411,0.347-0.833,0.68-1.268,1  c-0.07,0.052-0.149,0.075-0.226,0.075c-0.119,0-0.238-0.052-0.311-0.151c-0.125-0.172-0.089-0.413,0.082-0.539  c0.415-0.31,0.83-0.633,1.226-0.972C65.956,68.658,66.198,68.676,66.333,68.838z M28.777,62.338c0.104,0.186,0.04,0.421-0.142,0.528  c-0.065,0.037-0.124,0.051-0.193,0.051c-0.129,0-0.265-0.065-0.331-0.195c-0.271-0.462-0.531-0.934-0.767-1.416  c-0.097-0.19-0.024-0.416,0.169-0.518c0.187-0.089,0.422-0.015,0.515,0.175C28.263,61.435,28.512,61.89,28.777,62.338z   M25.072,50.431c-0.22,0-0.391-0.125-0.391-0.333V50c0-0.509,0.018-1.019,0.046-1.518c0.015-0.212,0.206-0.376,0.41-0.365  c0.211,0.012,0.369,0.199,0.358,0.407c-0.025,0.49-0.047,0.98-0.047,1.476C25.449,50.213,25.278,50.431,25.072,50.431z   M34.266,68.848c0.169,0.133,0.186,0.375,0.056,0.536c-0.084,0.093-0.191,0.14-0.303,0.14c-0.082,0-0.17-0.028-0.245-0.088  c-0.415-0.343-0.813-0.705-1.208-1.075c-0.152-0.146-0.157-0.389-0.015-0.542c0.146-0.157,0.392-0.162,0.544-0.018  C33.474,68.163,33.863,68.509,34.266,68.848z M26.168,41.439c0.186-0.515,0.384-1.014,0.598-1.504  c0.085-0.196,0.311-0.288,0.502-0.199c0.197,0.082,0.285,0.304,0.204,0.504c-0.209,0.477-0.405,0.962-0.578,1.454  c-0.059,0.163-0.206,0.26-0.363,0.26c-0.042,0-0.082-0.009-0.125-0.023C26.201,41.857,26.094,41.638,26.168,41.439z M25.524,54.797  c-0.018,0-0.042,0.003-0.069,0.003c-0.182,0-0.341-0.129-0.374-0.314c-0.094-0.528-0.173-1.064-0.23-1.602  c-0.023-0.213,0.123-0.397,0.329-0.421c0.224-0.033,0.409,0.129,0.428,0.333c0.062,0.524,0.14,1.037,0.227,1.551  C25.873,54.56,25.732,54.759,25.524,54.797z M25.049,45.704c0.09-0.533,0.198-1.064,0.316-1.583  c0.055-0.205,0.259-0.344,0.469-0.288c0.204,0.046,0.334,0.255,0.282,0.463c-0.12,0.51-0.225,1.019-0.313,1.537  c-0.027,0.186-0.191,0.32-0.376,0.32c-0.024,0-0.045,0-0.067-0.004C25.154,46.111,25.011,45.908,25.049,45.704z M31.238,65.833  c0.14,0.163,0.112,0.403-0.046,0.538c-0.075,0.064-0.163,0.092-0.25,0.092c-0.112,0-0.219-0.045-0.294-0.134  c-0.346-0.411-0.679-0.833-1.001-1.273c-0.127-0.167-0.091-0.407,0.082-0.532c0.164-0.125,0.41-0.092,0.531,0.079  C30.576,65.023,30.898,65.431,31.238,65.833z M28.163,37.958c-0.186-0.107-0.248-0.339-0.146-0.523  c0.273-0.472,0.554-0.932,0.849-1.375c0.122-0.181,0.357-0.231,0.534-0.111c0.177,0.116,0.226,0.357,0.112,0.528  c-0.292,0.44-0.565,0.885-0.824,1.339c-0.074,0.125-0.199,0.194-0.333,0.194C28.29,38.009,28.219,37.99,28.163,37.958z   M26.46,56.986c0.147,0.505,0.316,0.995,0.492,1.485c0.076,0.199-0.029,0.422-0.224,0.496c-0.046,0.014-0.093,0.019-0.133,0.019  c-0.158,0-0.305-0.093-0.362-0.25c-0.185-0.505-0.354-1.015-0.512-1.529c-0.059-0.208,0.06-0.416,0.26-0.481  C26.19,56.671,26.399,56.783,26.46,56.986z M50.409,74.931c0,0.213-0.147,0.389-0.365,0.389h-0.049c-0.521,0-1.04-0.018-1.563-0.05  c-0.211-0.013-0.369-0.196-0.361-0.407c0.011-0.209,0.163-0.394,0.409-0.362c0.498,0.033,1.011,0.047,1.516,0.047  C50.211,74.547,50.409,74.722,50.409,74.931z M69.289,33.606c0.347,0.407,0.685,0.828,1.006,1.264  c0.129,0.167,0.093,0.407-0.074,0.538c-0.067,0.046-0.153,0.074-0.23,0.074c-0.118,0-0.233-0.05-0.306-0.153  c-0.316-0.421-0.644-0.833-0.978-1.222c-0.14-0.167-0.122-0.407,0.041-0.547C68.909,33.425,69.158,33.448,69.289,33.606z   M73.517,42.931c-0.152-0.511-0.321-1-0.498-1.492c-0.076-0.194,0.02-0.416,0.223-0.492c0.195-0.073,0.418,0.029,0.492,0.229  c0.187,0.499,0.361,1.014,0.52,1.526c0.055,0.204-0.058,0.421-0.257,0.483C73.956,43.2,73.92,43.2,73.881,43.2  C73.721,43.2,73.563,43.092,73.517,42.931z M92.681,52.393c-0.048,0.7-0.643,1.218-1.309,1.158c-0.675-0.064-1.172-0.64-1.13-1.288  c0.04-0.651,0.586-1.171,1.264-1.157C92.169,51.124,92.716,51.7,92.681,52.393z M92.142,57.158c-0.121,0.69-0.759,1.138-1.415,1.004  c-0.659-0.139-1.104-0.768-0.993-1.407c0.122-0.644,0.724-1.098,1.391-1.004C91.791,55.838,92.282,56.473,92.142,57.158z   M91.078,61.834c-0.177,0.676-0.871,1.046-1.52,0.833c-0.64-0.208-1.001-0.878-0.825-1.504c0.178-0.629,0.853-1.005,1.501-0.843  C90.891,60.482,91.271,61.163,91.078,61.834z M89.505,66.362c-0.261,0.647-1.011,0.93-1.622,0.652  c-0.62-0.283-0.881-0.981-0.64-1.588s0.945-0.907,1.584-0.672C89.457,64.996,89.763,65.714,89.505,66.362z M87.421,70.681  c-0.344,0.602-1.103,0.815-1.683,0.468c-0.578-0.343-0.78-1.088-0.458-1.653c0.324-0.564,1.038-0.796,1.639-0.486  C87.511,69.311,87.762,70.074,87.421,70.681z M84.56,73.023c0.573,0.374,0.709,1.143,0.301,1.708  c-0.405,0.576-1.171,0.699-1.713,0.283c-0.529-0.403-0.655-1.162-0.283-1.699C83.247,72.788,84.001,72.654,84.56,73.023z   M81.764,76.746c0.516,0.431,0.569,1.209,0.109,1.735c-0.458,0.529-1.265,0.547-1.746,0.085c-0.489-0.473-0.504-1.217-0.077-1.709  C80.476,76.357,81.244,76.311,81.764,76.746z M78.563,80.13c0.463,0.482,0.447,1.282-0.079,1.741  c-0.528,0.458-1.311,0.413-1.739-0.111c-0.431-0.515-0.386-1.281,0.111-1.708C77.344,79.626,78.097,79.64,78.563,80.13z   M75.015,83.149c0.414,0.542,0.288,1.305-0.28,1.709c-0.568,0.412-1.334,0.272-1.714-0.293c-0.363-0.559-0.231-1.319,0.298-1.699  C73.855,82.496,74.614,82.617,75.015,83.149z M71.147,85.741c0.346,0.576,0.139,1.33-0.469,1.675  c-0.602,0.348-1.372,0.099-1.672-0.495c-0.311-0.605-0.072-1.319,0.491-1.638C70.062,84.954,70.804,85.158,71.147,85.741z   M67.018,87.885c0.272,0.607-0.005,1.357-0.655,1.617c-0.648,0.258-1.369-0.047-1.604-0.681c-0.237-0.63,0.065-1.339,0.67-1.58  C66.029,87.001,66.73,87.265,67.018,87.885z M62.666,89.557c0.211,0.644-0.158,1.337-0.836,1.522  c-0.663,0.19-1.346-0.185-1.511-0.847c-0.158-0.643,0.209-1.324,0.842-1.504C61.79,88.561,62.462,88.922,62.666,89.557z   M58.161,90.723c0.135,0.663-0.316,1.297-1.001,1.417c-0.685,0.139-1.322-0.352-1.412-1.014c-0.087-0.676,0.366-1.264,1.004-1.394  C57.395,89.617,58.025,90.066,58.161,90.723z M53.55,91.372c0.058,0.667-0.462,1.255-1.155,1.31  c-0.698,0.038-1.271-0.515-1.286-1.181c-0.016-0.675,0.499-1.226,1.152-1.263C52.909,90.19,53.487,90.695,53.55,91.372z   M48.889,91.5c-0.012,0.667-0.584,1.219-1.285,1.181c-0.693-0.055-1.213-0.643-1.152-1.31c0.062-0.676,0.639-1.181,1.286-1.135  C48.392,90.274,48.904,90.825,48.889,91.5z M44.252,91.126c-0.09,0.663-0.727,1.153-1.413,1.014c-0.684-0.12-1.134-0.754-1-1.417  c0.135-0.657,0.765-1.106,1.408-0.991C43.887,89.862,44.339,90.45,44.252,91.126z M39.683,90.232  c-0.167,0.662-0.849,1.037-1.513,0.847c-0.678-0.185-1.046-0.878-0.836-1.522c0.205-0.634,0.881-0.996,1.505-0.829  C39.47,88.909,39.84,89.589,39.683,90.232z M35.241,88.821c-0.235,0.634-0.953,0.939-1.604,0.681  c-0.65-0.259-0.93-1.009-0.655-1.617c0.288-0.62,0.988-0.884,1.59-0.644C35.183,87.482,35.479,88.191,35.241,88.821z M30.993,86.922  c-0.304,0.593-1.066,0.842-1.674,0.495c-0.607-0.345-0.813-1.1-0.466-1.675c0.344-0.583,1.082-0.787,1.647-0.458  C31.069,85.603,31.304,86.317,30.993,86.922z M26.683,82.866c0.526,0.38,0.662,1.14,0.297,1.699  c-0.379,0.565-1.146,0.705-1.713,0.293c-0.571-0.404-0.697-1.167-0.281-1.709C25.384,82.617,26.149,82.496,26.683,82.866z   M23.143,80.052c0.498,0.426,0.544,1.193,0.112,1.708c-0.429,0.524-1.207,0.57-1.733,0.111c-0.53-0.459-0.549-1.259-0.086-1.741  C21.904,79.64,22.653,79.626,23.143,80.052z M19.95,76.857c0.425,0.492,0.413,1.236-0.078,1.709  c-0.48,0.462-1.286,0.444-1.747-0.079c-0.457-0.532-0.406-1.311,0.112-1.741C18.757,76.311,19.523,76.357,19.95,76.857z   M17.135,73.315c0.37,0.538,0.245,1.296-0.281,1.699c-0.542,0.416-1.306,0.292-1.714-0.283c-0.407-0.565-0.269-1.334,0.301-1.708  C15.996,72.654,16.751,72.788,17.135,73.315z M14.724,69.496c0.322,0.564,0.118,1.31-0.461,1.653  c-0.576,0.347-1.334,0.134-1.678-0.468c-0.349-0.601-0.1-1.37,0.497-1.671C13.687,68.7,14.399,68.932,14.724,69.496z M12.117,67.014  c-0.609,0.278-1.357-0.005-1.615-0.652c-0.26-0.648,0.046-1.366,0.678-1.607c0.632-0.235,1.34,0.065,1.575,0.672  C13,66.033,12.737,66.731,12.117,67.014z M10.443,62.667c-0.645,0.213-1.335-0.157-1.521-0.833  c-0.195-0.671,0.186-1.352,0.842-1.515c0.65-0.162,1.329,0.214,1.504,0.843C11.442,61.788,11.081,62.458,10.443,62.667z   M9.273,58.162c-0.656,0.134-1.292-0.314-1.416-1.004c-0.133-0.685,0.351-1.32,1.017-1.407c0.672-0.093,1.266,0.361,1.394,1.004  C10.381,57.394,9.935,58.023,9.273,58.162z M8.629,53.551c-0.667,0.06-1.259-0.458-1.31-1.158c-0.036-0.693,0.515-1.269,1.176-1.287  c0.684-0.015,1.228,0.506,1.265,1.157C9.806,52.912,9.307,53.487,8.629,53.551z M7.319,47.606c0.051-0.7,0.643-1.212,1.31-1.154  c0.678,0.061,1.177,0.64,1.131,1.288c-0.037,0.648-0.581,1.167-1.265,1.154C7.834,48.875,7.283,48.305,7.319,47.606z M7.857,42.842  c0.124-0.69,0.76-1.134,1.416-1.004c0.661,0.139,1.107,0.769,0.994,1.412c-0.128,0.638-0.722,1.093-1.394,1.004  C8.208,44.162,7.725,43.528,7.857,42.842z M8.923,38.167c0.181-0.677,0.876-1.042,1.521-0.833c0.638,0.207,0.999,0.879,0.825,1.509  c-0.175,0.625-0.854,1-1.504,0.839C9.108,39.518,8.728,38.837,8.923,38.167z M10.502,33.638c0.258-0.648,1.006-0.93,1.615-0.653  c0.62,0.282,0.883,0.982,0.638,1.589c-0.235,0.612-0.943,0.907-1.575,0.671C10.548,35.009,10.242,34.291,10.502,33.638z   M12.585,29.318c0.344-0.601,1.102-0.811,1.678-0.468c0.579,0.347,0.783,1.088,0.461,1.653c-0.324,0.565-1.037,0.801-1.642,0.491  C12.485,30.689,12.236,29.926,12.585,29.318z M15.44,26.976c-0.569-0.375-0.708-1.144-0.301-1.708  c0.408-0.574,1.172-0.699,1.714-0.282c0.526,0.402,0.651,1.167,0.281,1.7C16.751,27.212,15.996,27.341,15.44,26.976z M18.237,23.255  c-0.519-0.432-0.569-1.209-0.112-1.738c0.461-0.527,1.267-0.542,1.747-0.078c0.491,0.468,0.503,1.218,0.078,1.708  C19.523,23.643,18.757,23.689,18.237,23.255z M21.436,19.87c-0.463-0.478-0.446-1.283,0.081-1.741  c0.531-0.459,1.31-0.408,1.738,0.111c0.432,0.519,0.386,1.287-0.112,1.708C22.653,20.379,21.904,20.359,21.436,19.87z   M24.985,16.855c-0.416-0.541-0.29-1.31,0.281-1.712c0.567-0.413,1.334-0.273,1.713,0.296c0.365,0.556,0.229,1.314-0.297,1.693  C26.144,17.507,25.384,17.383,24.985,16.855z M28.854,14.258c-0.347-0.573-0.142-1.329,0.466-1.676  c0.604-0.346,1.37-0.096,1.674,0.5c0.311,0.603,0.072,1.315-0.492,1.64C29.936,15.045,29.197,14.842,28.854,14.258z M32.982,12.119  c-0.274-0.605,0.005-1.36,0.655-1.614c0.645-0.26,1.368,0.045,1.604,0.675c0.238,0.63-0.063,1.338-0.669,1.578  C33.971,13,33.271,12.74,32.982,12.119z M37.334,10.443c-0.21-0.644,0.158-1.337,0.836-1.524c0.664-0.189,1.346,0.187,1.513,0.849  c0.157,0.643-0.213,1.324-0.844,1.503C38.211,11.438,37.539,11.081,37.334,10.443z M41.839,9.276c-0.134-0.662,0.316-1.291,1-1.416  c0.687-0.14,1.323,0.351,1.413,1.013c0.087,0.676-0.365,1.265-1.005,1.395C42.604,10.383,41.974,9.939,41.839,9.276z M46.451,8.629  c-0.061-0.667,0.459-1.255,1.152-1.31c0.701-0.038,1.273,0.512,1.285,1.179c0.016,0.681-0.497,1.228-1.151,1.265  C47.09,9.809,46.513,9.305,46.451,8.629z M51.108,8.498c0.016-0.667,0.588-1.217,1.286-1.179c0.693,0.055,1.213,0.643,1.155,1.31  c-0.063,0.676-0.641,1.18-1.289,1.134C51.607,9.726,51.093,9.179,51.108,8.498z M55.748,8.874c0.09-0.662,0.728-1.153,1.412-1.013  c0.685,0.125,1.136,0.754,1.001,1.416c-0.136,0.663-0.767,1.106-1.409,0.992C56.114,10.138,55.661,9.55,55.748,8.874z M60.319,9.768  c0.165-0.662,0.848-1.038,1.511-0.849c0.678,0.187,1.047,0.88,0.836,1.524c-0.204,0.638-0.881,0.995-1.505,0.828  C60.528,11.092,60.161,10.411,60.319,9.768z M64.758,11.18c0.235-0.63,0.953-0.935,1.604-0.681c0.65,0.26,0.928,1.014,0.655,1.62  c-0.287,0.621-0.988,0.881-1.59,0.639C64.818,12.518,64.521,11.81,64.758,11.18z M69.007,13.082c0.3-0.596,1.064-0.846,1.672-0.5  c0.607,0.348,0.814,1.103,0.469,1.676c-0.344,0.584-1.086,0.787-1.649,0.464C68.93,14.396,68.696,13.685,69.007,13.082z   M73.318,17.132c-0.529-0.379-0.661-1.137-0.298-1.693c0.38-0.57,1.146-0.709,1.714-0.296c0.568,0.402,0.694,1.172,0.28,1.712  C74.614,17.383,73.85,17.507,73.318,17.132z M76.856,19.948c-0.497-0.421-0.542-1.189-0.111-1.708  c0.429-0.519,1.211-0.57,1.734-0.111c0.53,0.458,0.547,1.263,0.084,1.741C78.097,20.359,77.344,20.374,76.856,19.948z M80.05,23.147  c-0.427-0.491-0.412-1.241,0.077-1.708c0.481-0.463,1.288-0.449,1.746,0.078c0.46,0.529,0.406,1.306-0.109,1.738  C81.244,23.689,80.476,23.643,80.05,23.147z M82.864,26.685c-0.372-0.538-0.246-1.297,0.283-1.7  c0.542-0.417,1.308-0.292,1.713,0.282c0.408,0.565,0.272,1.334-0.301,1.708C84.001,27.341,83.247,27.212,82.864,26.685z   M85.28,30.503c-0.322-0.565-0.12-1.306,0.458-1.653c0.58-0.343,1.339-0.133,1.683,0.468c0.341,0.608,0.09,1.371-0.502,1.676  C86.318,31.304,85.604,31.069,85.28,30.503z M87.883,32.985c0.611-0.276,1.361,0.005,1.622,0.653  c0.258,0.648-0.048,1.371-0.678,1.606c-0.639,0.236-1.343-0.064-1.584-0.671C87.002,33.967,87.263,33.267,87.883,32.985z   M89.559,37.333c0.648-0.209,1.332,0.156,1.52,0.833c0.193,0.671-0.188,1.351-0.844,1.515c-0.648,0.162-1.323-0.214-1.501-0.839  C88.558,38.212,88.919,37.541,89.559,37.333z M90.727,41.838c0.656-0.13,1.294,0.314,1.415,1.004  c0.141,0.686-0.351,1.319-1.018,1.412c-0.667,0.088-1.269-0.366-1.391-1.004C89.622,42.606,90.067,41.977,90.727,41.838z   M91.372,46.453c0.666-0.059,1.261,0.454,1.309,1.154c0.035,0.699-0.512,1.268-1.175,1.288c-0.678,0.013-1.224-0.506-1.264-1.154  C90.2,47.092,90.697,46.514,91.372,46.453z M87.16,54.689c-0.158,1.375-1.444,2.255-2.7,1.996c-1.285-0.264-2.098-1.408-1.975-2.575  c0.165-1.167,1.239-2.078,2.555-2.014C86.318,52.153,87.347,53.324,87.16,54.689z M81.72,65.047  c-1.181-0.579-1.686-1.889-1.268-2.99c0.453-1.084,1.712-1.7,2.973-1.311c1.222,0.375,1.932,1.768,1.397,3.042  C84.333,65.079,82.872,65.611,81.72,65.047z M76.976,72.464c-0.982-0.843-1.181-2.27-0.481-3.218  c0.702-0.95,2.094-1.213,3.199-0.528c1.1,0.675,1.421,2.181,0.605,3.297C79.479,73.121,77.965,73.307,76.976,72.464z M73.878,78.862  c-1.074,0.871-2.583,0.667-3.334-0.402c-0.74-1.052-0.583-2.482,0.328-3.228c0.906-0.754,2.339-0.647,3.231,0.278  C75.015,76.45,74.928,77.973,73.878,78.862z M67.006,80.714c0.655,1.134,0.187,2.583-1.061,3.181c-1.245,0.588-2.661,0-3.122-1.214  c-0.463-1.213,0.054-2.542,1.119-3.042C65.001,79.125,66.367,79.593,67.006,80.714z M58.834,83.983  c0.344,1.249-0.462,2.545-1.818,2.81c-1.354,0.264-2.583-0.671-2.727-1.953c-0.137-1.298,0.7-2.439,1.854-2.673  C57.296,81.95,58.499,82.728,58.834,83.983z M50.109,85.103c0.021,1.296-1.085,2.352-2.46,2.273  c-1.375-0.079-2.335-1.277-2.155-2.565c0.179-1.287,1.272-2.2,2.448-2.13C49.118,82.746,50.089,83.807,50.109,85.103z   M41.371,84.033c-0.305,1.264-1.633,2.015-2.944,1.593c-1.318-0.421-1.947-1.828-1.448-3.022c0.497-1.203,1.776-1.812,2.896-1.455  C40.997,81.505,41.677,82.778,41.371,84.033z M33.182,80.821c-0.601,1.134-2.092,1.55-3.251,0.801  c-1.17-0.722-1.419-2.264-0.65-3.283c0.79-1.056,2.176-1.301,3.176-0.686C33.44,78.292,33.797,79.657,33.182,80.821z M26.051,75.658  c-0.865,0.954-2.416,0.992-3.353-0.022c-0.941-1.005-0.82-2.533,0.182-3.343c1.021-0.814,2.441-0.735,3.252,0.12  C26.929,73.283,26.938,74.69,26.051,75.658z M20.424,68.898c-1.094,0.718-2.575,0.361-3.247-0.848  c-0.656-1.217-0.176-2.662,1.017-3.204c1.17-0.527,2.544-0.106,3.106,0.931C21.867,66.807,21.5,68.19,20.424,68.898z M13.713,59.315  c-0.329-1.344,0.496-2.616,1.79-2.842c1.27-0.222,2.487,0.532,2.768,1.676c0.306,1.139-0.415,2.388-1.621,2.806  C15.405,61.375,14.071,60.653,13.713,59.315z M14.983,52.314c-1.311,0.102-2.418-0.934-2.441-2.314  c0.023-1.375,1.131-2.416,2.441-2.315c1.275,0.102,2.287,1.139,2.27,2.315C17.271,51.18,16.259,52.212,14.983,52.314z   M18.271,41.857c-0.28,1.138-1.498,1.893-2.768,1.671c-1.294-0.222-2.119-1.5-1.79-2.838c0.358-1.339,1.692-2.065,2.937-1.644  C17.855,39.462,18.576,40.717,18.271,41.857z M17.177,31.953c0.672-1.208,2.153-1.564,3.247-0.851  c1.076,0.708,1.443,2.097,0.876,3.121c-0.563,1.037-1.937,1.458-3.106,0.93C17.001,34.615,16.521,33.171,17.177,31.953z   M22.698,24.365c0.937-1.015,2.487-0.977,3.353-0.022c0.887,0.967,0.878,2.378,0.081,3.244c-0.811,0.856-2.231,0.941-3.252,0.121  C21.878,26.901,21.752,25.37,22.698,24.365z M33.182,19.18c0.615,1.162,0.259,2.527-0.726,3.171c-1,0.617-2.386,0.371-3.176-0.685  c-0.769-1.024-0.523-2.565,0.65-3.288C31.085,17.629,32.581,18.05,33.182,19.18z M36.979,17.402  c-0.499-1.194,0.13-2.607,1.442-3.024c1.317-0.421,2.646,0.324,2.95,1.588c0.306,1.255-0.374,2.53-1.497,2.884  C38.755,19.212,37.476,18.601,36.979,17.402z M45.494,15.188c-0.18-1.287,0.78-2.481,2.155-2.563  c1.375-0.076,2.481,0.977,2.46,2.272c-0.021,1.297-0.991,2.361-2.167,2.421C46.762,17.392,45.673,16.476,45.494,15.188z   M54.289,15.167c0.144-1.288,1.372-2.223,2.727-1.959c1.356,0.264,2.162,1.565,1.818,2.811c-0.335,1.259-1.538,2.033-2.696,1.815  C54.984,17.601,54.152,16.462,54.289,15.167z M62.823,17.318c0.461-1.213,1.877-1.801,3.122-1.209  c1.247,0.593,1.716,2.047,1.061,3.182c-0.639,1.121-2.005,1.583-3.063,1.068C62.877,19.861,62.36,18.537,62.823,17.318z   M70.544,21.541c0.751-1.07,2.26-1.269,3.329-0.403c1.055,0.895,1.142,2.412,0.23,3.352c-0.893,0.927-2.325,1.032-3.231,0.274  C69.956,24.027,69.804,22.591,70.544,21.541z M76.494,30.754c-0.699-0.95-0.501-2.375,0.481-3.214  c0.989-0.846,2.504-0.661,3.323,0.445c0.815,1.111,0.494,2.625-0.605,3.301C78.588,31.968,77.191,31.703,76.494,30.754z   M81.72,34.958c1.152-0.57,2.613-0.032,3.103,1.254c0.534,1.272-0.176,2.667-1.397,3.046c-1.261,0.39-2.52-0.227-2.973-1.315  C80.034,36.842,80.539,35.531,81.72,34.958z M87.16,45.31c0.187,1.366-0.842,2.537-2.12,2.593c-1.315,0.064-2.39-0.848-2.555-2.015  c-0.123-1.167,0.689-2.31,1.975-2.574C85.716,43.056,87.002,43.935,87.16,45.31z"/></svg>